<svg width="12" height="12" viewBox="0 0 12 12" fill="none" xmlns="http://www.w3.org/2000/svg">
<path d="M1.33333 3.33335H10.6667H1.33333ZM1.33333 3.33335C0.979711 3.33335 0.640573 3.19288 0.390524 2.94283C0.140476 2.69278 0 2.35364 0 2.00002C0 1.6464 0.140476 1.30726 0.390524 1.05721C0.640573 0.807163 0.979711 0.666687 1.33333 0.666687H10.6667C11.0203 0.666687 11.3594 0.807163 11.6095 1.05721C11.8595 1.30726 12 1.6464 12 2.00002C12 2.35364 11.8595 2.69278 11.6095 2.94283C11.3594 3.19288 11.0203 3.33335 10.6667 3.33335H1.33333ZM1.33333 3.33335V10C1.33333 10.3536 1.47381 10.6928 1.72386 10.9428C1.97391 11.1929 2.31304 11.3334 2.66667 11.3334H9.33333C9.68696 11.3334 10.0261 11.1929 10.2761 10.9428C10.5262 10.6928 10.6667 10.3536 10.6667 10V3.33335H1.33333ZM4.66667 6.00002H7.33333H4.66667Z" fill="#C4C4C4"/>
</svg>
